<?xml version="1.0" encoding="utf-8"?>
<!-- Generator: Adobe Illustrator 25.4.0, SVG Export Plug-In . SVG Version: 6.00 Build 0)  -->
<svg version="1.1" id="Layer_1" xmlns="http://www.w3.org/2000/svg" xmlns:xlink="http://www.w3.org/1999/xlink" x="0px" y="0px"
	 viewBox="0 0 693.07 258.48" style="enable-background:new 0 0 693.07 258.48;" xml:space="preserve">
<style type="text/css">
	.st0{fill:#00A9C2;}
	.st1{fill:#AF348C;}
	.st2{fill:#8CBE4C;}
	.st3{fill:#E63933;}
	.st4{fill:#D9388A;}
	.st5{fill:#EEA632;}
	.st6{fill:#008696;}
	.st7{fill:#7E3082;}
	.st8{fill:#749F48;}
	.st9{fill:#BD342E;}
	.st10{fill:#B82C79;}
	.st11{fill:#ED8930;}
	.st12{fill:#FFFFFF;}
</style>
<g>
	<g>
		<path class="st0" d="M692.78,110.43c-0.3-3.42-0.87-6.78-1.7-10.05c-1.74-6.82-4.57-13.23-8.29-19
			c-4.85-7.53-11.25-14.01-18.72-18.96c-10.23-6.77-22.47-10.71-35.65-10.71c-27.43,0-50.86,17.08-60.24,41.2
			c-0.52,1.37-1.02,2.75-1.46,4.15c-1.62,5.23-2.61,10.77-2.85,16.49c-0.05,0.91-0.08,1.83-0.08,2.77c0,1.45,0.08,2.9,0.17,4.32
			c0.11,1.76,0.3,3.5,0.54,5.21c0.82,5.53,2.33,10.82,4.47,15.81c3.14,7.33,7.58,13.96,13.06,19.59c4.33,4.45,9.26,8.29,14.7,11.34
			c9.37,5.3,20.18,8.32,31.69,8.32c17.69,0,33.71-7.11,45.38-18.61c0.18-0.18,0.36-0.38,0.55-0.56c2.59-2.6,4.97-5.45,7.07-8.48
			c2.87-4.09,5.25-8.52,7.13-13.23c2.89-7.34,4.51-15.35,4.51-23.72C693.07,114.33,692.96,112.37,692.78,110.43 M637.32,143.28
			c-2.84,1.02-5.91,1.61-9.09,1.61c-7.69,0-14.63-3.21-19.64-8.42c-0.47-0.46-0.91-1-1.33-1.49c-3.2-3.82-5.42-8.51-6.3-13.66
			c-0.25-1.63-0.45-3.3-0.45-4.97c0-1.45,0.14-2.86,0.35-4.25c1.08-7.57,5.05-14.15,10.73-18.56c4.63-3.61,10.38-5.76,16.64-5.76
			c2.12,0,4.19,0.26,6.19,0.75c6.58,1.55,12.27,5.51,16.14,10.92c3.36,4.73,5.38,10.56,5.38,16.89c0,8.22-3.42,15.65-8.83,20.85
			C644.32,139.87,641,141.96,637.32,143.28"/>
		<polygon class="st1" points="451.17,153.85 451.17,55.87 424.83,55.87 424.83,55.89 412.8,55.89 412.86,179.11 451.17,179.11 		
			"/>
		<path class="st2" d="M562.07,159.71c-2.19-8.63-4.5-17.99-4.5-17.99l-1.54,0.5c-9.28,3.08-20.82,4.41-28.02,3.23
			c-5.38-0.88-10.17-2.59-13.9-5.24c-2.07-1.15-6.55-6.08-6.74-6.4c-3.23-4.56-4.93-10.27-4.94-17.04
			c0.05-15.76,9.13-25.97,25.56-28.68c7.22-1.21,18.73,0.09,28.03,3.19l1.54,0.54c0,0,5.49-28.23,6.87-34.29
			c-8.99-3.83-19.9-5.65-32.6-5.65c-41.58,0.04-69.62,26.98-69.82,64.69c-0.03,0.23-0.03,0.31-0.03,0.31
			c0.08,5.94,0.79,11.61,2.15,16.94c0.09,0.32,1.43,4.85,2.1,6.36h-0.14c3.39,8.94,8.49,16.47,15.09,22.64v0.03l3.06,2.65
			c12.03,9.87,28.39,15.71,47.67,16.12c18.41,0.45,26.94-2.92,34.28-6.37C565.4,172.52,563.79,166.36,562.07,159.71"/>
		<polygon class="st3" points="164.98,164.7 162.97,154.74 156.74,124.03 142.93,55.89 100.52,55.89 83.95,116.7 67.41,55.89 
			26.53,55.89 12.07,124.04 5.55,154.74 3.43,164.7 0.38,179.1 39.91,179.1 50.84,124.03 52.55,115.39 61.76,147.26 70.97,179.1 
			96.95,179.1 106.16,147.26 115.38,115.39 117.1,124.03 128.01,179.1 167.9,179.1 		"/>
		<path class="st4" d="M236.28,124.69H243h50.61v-4.53c0-37.14-17.72-62.02-48.92-67.1c-2.67-0.44-5.44-0.73-8.34-0.87
			c-1.31-0.07-2.66-0.11-4.01-0.11c-0.63,0-1.23,0.02-1.86,0.03c-4.2,0.12-8.27,0.52-12.17,1.29
			c-28.99,5.58-48.92,28.75-48.92,64.14c0,18.23,5.38,32.86,14.41,43.59c9.25,10.97,22.35,17.9,37.57,20.46
			c4.45,0.74,9.05,1.13,13.79,1.13c25.52,0,50.61-13.14,56.95-42.02h-38.18c0,0.01,0,0.01-0.02,0.03
			c-4.31,8-10.31,11.12-18.64,11.18c-0.11,0-0.2,0.02-0.29,0.02c-10.95,0-18.82-4.3-22.82-12.43c-0.7-1.37-1.26-2.84-1.71-4.44
			c-0.64-2.22-1.08-4.61-1.26-7.23c-0.05-1.02-0.09-2.06-0.09-3.15h17.23h9.95V124.69z M255.74,99.61h-27.63h-8.61h-9.62h-0.16
			c1.89-9.99,8.27-16.24,16.55-18.44c2.21-0.6,4.57-0.9,6.98-0.9C243.96,80.27,253.76,87.91,255.74,99.61"/>
		<polygon class="st4" points="230.56,49.97 233.85,48.17 240.87,44.35 250.3,39.23 271.15,27.87 249.91,0.96 214.82,32.67 
			225.93,44.89 		"/>
		<polygon class="st5" points="380.66,138.16 368.53,117.61 380.9,96.49 404.8,55.84 402.53,55.85 361.63,55.88 356.02,66.62 
			344.48,88.76 332.97,66.71 327.3,55.88 284.15,55.89 308.04,96.47 320.46,117.61 308.36,138.16 284.21,179.14 327.34,179.13 
			332.97,168.39 344.45,146.41 356.02,168.35 361.68,179.11 404.84,179.11 		"/>
		<path class="st6" d="M611.59,93.54c4.63-3.61,10.38-5.76,16.64-5.76c2.12,0,4.19,0.26,6.19,0.75c1.68-0.44,3.37-0.89,5.07-1.37
			c15.34-4.21,29.64-5.74,43.31-5.77c-4.85-7.53-11.25-14.01-18.72-18.96c-13.79,0.95-27.64,5.47-44.2,13.92
			c-20.48,10.43-38.1,14.89-51.7,16.58c-0.52,1.37-1.02,2.76-1.46,4.15C578.12,97.54,592.99,96.86,611.59,93.54"/>
		<path class="st6" d="M650.57,99.45c3.36,4.73,5.38,10.56,5.38,16.89c10.15-1.41,20.96-3.11,32.52-5.21
			c1.46-0.25,2.88-0.47,4.32-0.7c-0.3-3.42-0.87-6.78-1.7-10.05C673.71,96.34,661.63,96.97,650.57,99.45"/>
		<path class="st6" d="M600.96,121.31c-0.25-1.63-0.45-3.3-0.45-4.97c0-1.45,0.14-2.86,0.35-4.25c-4.95,0.64-10.31,1.08-16.27,1.24
			c-7.73,0.19-14.59,0.27-20.73,0.24c-0.05,0.91-0.08,1.83-0.08,2.77c0,1.45,0.08,2.9,0.17,4.32
			C574.2,121.48,586.45,121.81,600.96,121.31"/>
		<path class="st6" d="M673.81,162.32c0.18-0.18,0.36-0.38,0.55-0.56c-6.5-1.82-13.18-3.68-20.04-5.6
			c-35.01-9.69-49.49-1.52-72.29,5.1c4.33,4.45,9.26,8.29,14.7,11.34c14.66-1.63,30.93-3.96,48.98-7.22
			C655.43,163.63,664.74,162.71,673.81,162.32"/>
		<path class="st6" d="M608.59,136.47c-0.47-0.47-0.91-1-1.33-1.49c-5.51-1.56-11.12-3.14-16.88-4.72
			c-10.11-2.81-18.5-4.1-25.88-4.39c0.82,5.53,2.33,10.82,4.47,15.81c4.16-0.69,8.43-1.42,12.79-2.2
			C591.03,137.81,599.92,136.9,608.59,136.47"/>
		<path class="st6" d="M637.32,143.28c15.67,4.17,30.31,7.69,44.11,10c2.87-4.09,5.25-8.52,7.13-13.23
			c-13.95-0.57-27.59-1.91-41.44-2.86C644.32,139.87,641,141.96,637.32,143.28"/>
		<polygon class="st7" points="435.5,153.88 424.83,55.89 412.8,55.89 412.86,179.11 451.17,179.11 451.17,153.85 		"/>
		<path class="st8" d="M497.1,122.28c-0.76-3.82-2.71-2.59-11.29-1.82c-7.15,0.64-8.52-0.77-8.52-3c0-2.24,1.49-3.99,8.52-3.01
			c8.53,1.17,10.53,2,11.29-1.82c0.72-3.59-5.2-4.06-10.59-4.98c-17.55-3.07-18.72,7.46-18.72,9.81c0,2.33-0.38,12.75,18.72,9.8
			C491.91,126.42,497.82,125.87,497.1,122.28"/>
		<path class="st8" d="M488.59,100.42c7.08,3.96,9.36,5.92,11.59,2.1c2.24-3.81-0.9-4.61-8.19-8.24c-7.28-3.61-8.78-1.87-9.22-1.02
			C482.32,94.1,481.48,96.45,488.59,100.42"/>
		<path class="st8" d="M496.62,87.98c4.05,3.73,8.2,8.02,10.75,5.21c2.72-2.99,0.43-3.76-5.54-10.01c-4.97-5.21-4.67-7.19-2.82-8.57
			c1.86-1.4,4.23-1.33,7.83,4.81c4.33,7.44,4.9,9.51,8.55,7.73c3.45-1.65,0.09-6.6-2.45-11.41c-8.38-15.68-17.89-10-19.86-8.53
			C491.15,68.66,482.24,74.86,496.62,87.98"/>
		<path class="st8" d="M525.57,83.27c4.47-0.65,3.2-3.53,1.72-11.32c-1.52-7.84-3.84-7.9-4.8-7.74c-0.98,0.17-3.41,0.96-2.29,8.85
			C521.3,80.92,521.11,83.88,525.57,83.27"/>
		<path class="st8" d="M526.24,151.27c-4.37-1.12-4.37,2.03-6.13,9.78c-1.76,7.77,0.35,8.71,1.33,8.92c0.96,0.21,3.5,0.38,5.64-7.27
			C529.24,155.02,530.6,152.37,526.24,151.27"/>
		<path class="st8" d="M514.04,147.91c-3.42-1.74-3.66,0.43-8.24,7.16c-3.8,5.6-5.72,5.78-7.47,4.41c-1.76-1.34-2.18-3.48,2.81-8.03
			c6.05-5.53,7.86-6.5,5.39-9.37c-2.34-2.69-6.28,1.39-10.23,4.76c-12.98,10.96-5.48,18.17-3.67,19.57
			c1.83,1.41,9.67,7.98,18.88-7.76C514.12,154.2,517.25,149.53,514.04,147.91"/>
		<path class="st8" d="M500.97,133.47c-1.69-4.05-4.28-2.18-11.75,1.07c-7.46,3.27-7,5.48-6.59,6.36c0.4,0.89,1.77,2.97,9.39,0.08
			C499.63,138.07,502.65,137.54,500.97,133.47"/>
		<path class="st8" d="M537.65,82.77c3.61-0.05,2.8-1.95,3.51-9.48c0.57-6.27,2.09-7.25,4.16-6.9c2.04,0.37,3.39,1.94,1.36,7.87
			c-2.46,7.18-3.55,8.77-0.16,10.09c3.16,1.19,4.54-3.87,6.29-8.38c5.67-14.68-3.82-17.38-5.97-17.75
			c-2.16-0.4-11.65-2.4-12.03,14.58C534.68,77.59,534.23,82.8,537.65,82.77"/>
		<path class="st8" d="M547.02,150.01c-3.36,1.37-1.88,2.82,0.39,10.05c1.88,6.03,0.85,7.49-1.21,7.92c-2.02,0.38-3.9-0.57-4.3-6.8
			c-0.47-7.55-0.08-9.42-3.71-9.4c-3.42,0.02-2.77,5.23-2.65,10.01c0.42,15.67,10.24,14.75,12.39,14.31
			c2.14-0.43,11.74-1.98,5.55-17.88C551.76,153.73,550.15,148.73,547.02,150.01"/>
		<path class="st9" d="M84.08,147.74c12.75,0,23.08-10.54,23.08-23.53l-10.22,0.01c0,7.23-5.76,13.12-12.86,13.12
			c-7.12,0-12.88-5.88-12.88-13.12l-10.23-0.01C60.97,137.2,71.31,147.74,84.08,147.74"/>
		<polygon class="st9" points="128.01,179.1 167.9,179.1 164.97,164.7 135.02,164.7 128.85,134.45 148.34,134.45 150.58,144.7 
			140.97,144.7 142.95,154.74 162.97,154.74 156.74,124.03 117.11,124.03 		"/>
		<polygon class="st9" points="5.55,154.74 24.37,154.74 26.37,144.7 16.64,144.7 18.89,134.45 38.25,134.45 32.07,164.7 
			3.43,164.7 0.38,179.1 39.91,179.1 50.84,124.03 12.07,124.04 		"/>
		<polygon class="st9" points="99.9,147.26 99.9,157.49 89.97,157.49 89.97,166.89 77.87,166.89 77.87,157.49 68.04,157.49 
			68.04,147.26 61.76,147.26 70.97,179.1 96.95,179.1 106.16,147.26 		"/>
		<path class="st10" d="M246.8,35.71c8.77-10.48-4.84-21.69-4.84-21.69s1.55,3.94-5.33,11.4c-3.89,4.22-3.41,10.3-3.41,10.3
			c-6.02-3.08-7.16,4.28-7.29,9.17l4.62,5.08l3.3-1.8c5.62-7.25,8.41-15.05,8.82-26.48c1.62,9.33,0.79,16.51-1.8,22.66l9.43-5.11
			C249.12,36.82,246.8,35.71,246.8,35.71"/>
		<path class="st10" d="M210.35,108.34c-0.78-2.9-0.88-5.86-0.47-8.73h-0.16c1.88-9.99,8.27-16.24,16.55-18.44
			c15.71-6.2,4.78-13.97,4.78-13.97c19.05-2.16,8.43-9.84,8.43-9.84c2.06-1.52,3.77-2.96,5.2-4.3c-2.67-0.44-5.44-0.73-8.34-0.87
			c-4.17,5.71-9.91,10.85-16.34,16.74c-13.18,12.02-27.29,36.75-7.1,53.6c-27.07-11.38-21.99-37.84-0.15-54.97
			c7.37-5.77,13.2-10.62,17.71-15.45c-4.2,0.12-8.27,0.52-12.17,1.29c-1.06,2.78-1.69,5.38-1.69,5.38
			c-10.06-8.88-16.29,13.66-16.29,13.66c-10.16-10.89-18.25,6.8-18.39,17.16c-0.22,14.45,6.41,30.03,27.24,38.25
			c-0.05-1.02-0.08-2.06-0.08-3.15h17.22C218.67,120.89,212.24,115.59,210.35,108.34"/>
		<path class="st10" d="M227.47,104.94c-0.13-2.2,0.15-3.92,0.64-5.33h-8.62c-0.78,1.75-1.12,3.98-0.78,6.82
			c1.26,9.9,9.77,15.33,17.57,18.27H243C236.63,121.06,227.99,114.44,227.47,104.94"/>
		<path class="st10" d="M190.58,129.39c-13.79,2.8-12.08,19.5-12.08,19.5s2.5-6.76,8.93-10.16c5.87-3.11,15.3-4.12,24.73,0.79
			c-0.7-1.37-1.26-2.84-1.71-4.44C206.26,131.25,199.64,127.55,190.58,129.39"/>
		<path class="st10" d="M226.82,162.08c-5.74,5.29-13.43,9.2-23.17,7.24c-7.47-1.51-11.99-6.61-9.71-14.23
			c2.01-6.5,8.75-6.73,10.78-5.23c-3.38,2.53-3.19,10.36,5.24,10.82c7.84,0.15,10.66-10.7,2.45-15.46
			c-9.86-5.69-27.04-1.74-28.62,15.91c9.25,10.98,22.35,17.9,37.57,20.46c20.2-6.45,29.08-33.58,32.54-40.86
			c-4.31,8-10.31,11.12-18.64,11.18C232.62,155.72,229.92,159.2,226.82,162.08"/>
		<path class="st11" d="M376.79,158.27l-9.45-22.52l13.31,2.41l-12.13-20.55l12.37-21.13l-13.56,2.47l9.45-22.52l-19.63,14.32
			l-1.14-24.14l-11.54,22.14l-11.5-22.05l-1.14,24.06L312.2,76.44l9.47,22.52l-13.62-2.48l12.42,21.14l-12.1,20.55l13.3-2.41
			l-9.47,22.52l19.63-14.3l1.14,24.42l11.48-21.97l11.57,21.94l1.14-24.38L376.79,158.27z M339.76,136.4
			c-10.48-3.08-16.55-14.19-13.54-24.75c2.1-7.44,8.12-12.63,15.15-14.03c-2.09,2.23-3.7,4.99-4.61,8.15
			c-3,10.59,3.05,21.66,13.55,24.77c3.11,0.91,6.28,1.02,9.29,0.42C354.7,136.18,347.12,138.55,339.76,136.4"/>
	</g>
	<g>
		<path class="st12" d="M132.21,230.15l5.16,14.78c0.87,2.39,1.58,4.57,2.12,6.75h0.16c0.6-2.17,1.36-4.35,2.23-6.75l5.11-14.78h5
			l-10.33,26.32h-4.57l-10-26.32H132.21z"/>
		<path class="st12" d="M167.28,222.75c0.05,1.63-1.14,2.94-3.05,2.94c-1.68,0-2.88-1.31-2.88-2.94c0-1.69,1.25-2.99,2.99-2.99
			C166.14,219.76,167.28,221.07,167.28,222.75z M161.95,256.46v-26.32h4.78v26.32H161.95z"/>
		<path class="st12" d="M179.46,251.57c1.41,0.93,3.92,1.91,6.31,1.91c3.48,0,5.11-1.74,5.11-3.92c0-2.28-1.36-3.53-4.9-4.83
			c-4.73-1.69-6.96-4.3-6.96-7.45c0-4.24,3.43-7.72,9.08-7.72c2.66,0,5,0.76,6.47,1.63l-1.2,3.48c-1.03-0.65-2.94-1.52-5.38-1.52
			c-2.83,0-4.4,1.63-4.4,3.58c0,2.17,1.58,3.15,5,4.46c4.57,1.74,6.91,4.02,6.91,7.94c0,4.62-3.59,7.94-9.84,7.94
			c-2.88,0-5.55-0.76-7.4-1.85L179.46,251.57z"/>
		<path class="st12" d="M212.35,222.75c0.06,1.63-1.14,2.94-3.04,2.94c-1.69,0-2.88-1.31-2.88-2.94c0-1.69,1.25-2.99,2.99-2.99
			C211.21,219.76,212.35,221.07,212.35,222.75z M207.03,256.46v-26.32h4.78v26.32H207.03z"/>
		<path class="st12" d="M230.95,223.84v6.31h6.85v3.64h-6.85v14.19c0,3.26,0.92,5.11,3.59,5.11c1.31,0,2.07-0.11,2.77-0.33
			l0.22,3.59c-0.92,0.38-2.39,0.71-4.24,0.71c-2.23,0-4.02-0.76-5.16-2.06c-1.36-1.42-1.85-3.75-1.85-6.85V233.8h-4.08v-3.64h4.08
			v-4.84L230.95,223.84z"/>
		<path class="st12" d="M248.57,237.27c0-2.72-0.05-4.95-0.22-7.12h4.18l0.22,4.24h0.16c1.47-2.5,3.92-4.84,8.27-4.84
			c3.59,0,6.31,2.17,7.45,5.28h0.11c0.82-1.47,1.85-2.61,2.94-3.43c1.58-1.2,3.32-1.85,5.82-1.85c3.48,0,8.64,2.29,8.64,11.42v15.5
			h-4.67v-14.9c0-5.06-1.85-8.1-5.71-8.1c-2.72,0-4.84,2.01-5.65,4.35c-0.22,0.65-0.38,1.52-0.38,2.39v16.26h-4.68V240.7
			c0-4.19-1.85-7.23-5.49-7.23c-2.99,0-5.17,2.39-5.93,4.79c-0.27,0.71-0.38,1.52-0.38,2.34v15.88h-4.68L248.57,237.27
			L248.57,237.27z"/>
		<path class="st12" d="M302.02,244.17c0.11,6.47,4.24,9.14,9.03,9.14c3.43,0,5.49-0.6,7.29-1.36l0.81,3.43
			c-1.69,0.76-4.57,1.68-8.75,1.68c-8.1,0-12.94-5.38-12.94-13.32s4.68-14.19,12.34-14.19c8.59,0,10.87,7.56,10.87,12.4
			c0,0.98-0.11,1.74-0.16,2.23L302.02,244.17L302.02,244.17z M316.05,240.75c0.05-3.04-1.25-7.77-6.63-7.77
			c-4.84,0-6.96,4.46-7.34,7.77H316.05z"/>
		<path class="st12" d="M334.11,230.15l3.75,5.65c0.98,1.47,1.79,2.83,2.66,4.3h0.16c0.87-1.58,1.74-2.94,2.61-4.35l3.7-5.6h5.16
			l-8.97,12.72l9.25,13.59h-5.44l-3.86-5.93c-1.03-1.52-1.9-2.99-2.83-4.57h-0.11c-0.87,1.63-1.8,2.99-2.77,4.57l-3.81,5.93h-5.27
			l9.35-13.43l-8.92-12.89L334.11,230.15L334.11,230.15z"/>
		<path class="st12" d="M367.77,222.75c0.06,1.63-1.14,2.94-3.05,2.94c-1.68,0-2.88-1.31-2.88-2.94c0-1.69,1.25-2.99,2.99-2.99
			C366.62,219.76,367.77,221.07,367.77,222.75z M362.44,256.46v-26.32h4.79v26.32H362.44z"/>
		<path class="st12" d="M399.3,255.48c-1.25,0.65-4.03,1.58-7.56,1.58c-7.94,0-13.1-5.44-13.1-13.48c0-8.1,5.55-13.97,14.14-13.97
			c2.83,0,5.33,0.71,6.63,1.36l-1.09,3.69c-1.14-0.65-2.94-1.25-5.54-1.25c-6.04,0-9.3,4.46-9.3,9.95c0,6.09,3.92,9.84,9.13,9.84
			c2.72,0,4.52-0.71,5.88-1.31L399.3,255.48z"/>
		<path class="st12" d="M433.78,243.08c0,9.74-6.74,13.98-13.1,13.98c-7.12,0-12.61-5.22-12.61-13.54c0-8.81,5.76-13.97,13.05-13.97
			C428.67,229.55,433.78,235.04,433.78,243.08z M412.9,243.36c0,5.77,3.32,10.11,7.99,10.11c4.57,0,8-4.3,8-10.22
			c0-4.46-2.23-10.11-7.89-10.11C415.35,233.14,412.9,238.36,412.9,243.36z"/>
		<path class="st12" d="M445.96,257.06c-1.85,0-3.15-1.47-3.15-3.43c0-2.01,1.35-3.42,3.26-3.42s3.21,1.41,3.21,3.42
			c0,1.96-1.25,3.43-3.26,3.43H445.96z"/>
		<path class="st12" d="M479.4,255.48c-1.25,0.65-4.02,1.58-7.56,1.58c-7.94,0-13.1-5.44-13.1-13.48c0-8.1,5.55-13.97,14.14-13.97
			c2.83,0,5.33,0.71,6.63,1.36l-1.08,3.69c-1.15-0.65-2.94-1.25-5.55-1.25c-6.04,0-9.3,4.46-9.3,9.95c0,6.09,3.92,9.84,9.13,9.84
			c2.72,0,4.51-0.71,5.87-1.31L479.4,255.48z"/>
		<path class="st12" d="M513.87,243.08c0,9.74-6.74,13.98-13.1,13.98c-7.13,0-12.62-5.22-12.62-13.54c0-8.81,5.76-13.97,13.05-13.97
			C508.76,229.55,513.87,235.04,513.87,243.08z M493,243.36c0,5.77,3.32,10.11,7.99,10.11c4.57,0,7.99-4.3,7.99-10.22
			c0-4.46-2.23-10.11-7.88-10.11C495.44,233.14,493,238.36,493,243.36z"/>
		<path class="st12" d="M525.3,237.27c0-2.72-0.06-4.95-0.22-7.12h4.18l0.22,4.24h0.16c1.47-2.5,3.92-4.84,8.26-4.84
			c3.59,0,6.31,2.17,7.45,5.28h0.11c0.82-1.47,1.85-2.61,2.94-3.43c1.57-1.2,3.31-1.85,5.81-1.85c3.48,0,8.64,2.29,8.64,11.42v15.5
			h-4.67v-14.9c0-5.06-1.85-8.1-5.71-8.1c-2.72,0-4.84,2.01-5.65,4.35c-0.22,0.65-0.38,1.52-0.38,2.39v16.26h-4.68V240.7
			c0-4.19-1.84-7.23-5.49-7.23c-2.99,0-5.17,2.39-5.92,4.79c-0.27,0.71-0.38,1.52-0.38,2.34v15.88h-4.67V237.27z"/>
	</g>
</g>
</svg>
